<?xml version="1.0" encoding="UTF-8" standalone="no"?>
<!-- Created with Inkscape (http://www.inkscape.org/) -->

<svg
   xmlns:dc="http://purl.org/dc/elements/1.1/"
   xmlns:cc="http://creativecommons.org/ns#"
   xmlns:rdf="http://www.w3.org/1999/02/22-rdf-syntax-ns#"
   xmlns:svg="http://www.w3.org/2000/svg"
   xmlns="http://www.w3.org/2000/svg"
   xmlns:sodipodi="http://sodipodi.sourceforge.net/DTD/sodipodi-0.dtd"
   xmlns:inkscape="http://www.inkscape.org/namespaces/inkscape"
   width="1000"
   height="1000"
   id="svg2"
   version="1.1"
   inkscape:version="0.48.4 r9939"
   sodipodi:docname="OTL.svg">
  <defs
     id="defs4" />
  <sodipodi:namedview
     id="base"
     pagecolor="#ffffff"
     bordercolor="#666666"
     borderopacity="1.0"
     inkscape:pageopacity="0.0"
     inkscape:pageshadow="2"
     inkscape:zoom="0.49497475"
     inkscape:cx="16.156526"
     inkscape:cy="555.77118"
     inkscape:document-units="px"
     inkscape:current-layer="layer1"
     showgrid="false"
     fit-margin-top="0"
     fit-margin-left="0"
     fit-margin-right="0"
     fit-margin-bottom="0"
     inkscape:window-width="1440"
     inkscape:window-height="875"
     inkscape:window-x="0"
     inkscape:window-y="0"
     inkscape:window-maximized="1" />
  <metadata
     id="metadata7">
    <rdf:RDF>
      <cc:Work
         rdf:about="">
        <dc:format>image/svg+xml</dc:format>
        <dc:type
           rdf:resource="http://purl.org/dc/dcmitype/StillImage" />
        <dc:title />
      </cc:Work>
    </rdf:RDF>
  </metadata>
  <g
     inkscape:label="Layer 1"
     inkscape:groupmode="layer"
     id="layer1"
     transform="translate(-176.52734,572.90737)">
    <g
       transform="matrix(11.879359,0,0,11.879359,-1870.5043,-4966.7953)"
       style="font-size:40px;font-style:normal;font-weight:normal;line-height:125%;letter-spacing:0px;word-spacing:0px;fill:#000000;fill-opacity:1;stroke:none;font-family:Sans"
       id="flowRoot2985">
      <path
         d="m 190.04297,400.04184 c -2.8646,3e-5 -5.14324,1.06774 -6.83594,3.20313 -1.67969,2.13543 -2.51954,5.04559 -2.51953,8.73047 -1e-5,3.67188 0.83984,6.57552 2.51953,8.71093 1.6927,2.13542 3.97134,3.20313 6.83594,3.20313 2.86456,0 5.13019,-1.06771 6.79687,-3.20313 1.67967,-2.13541 2.51951,-5.03905 2.51953,-8.71093 -2e-5,-3.68488 -0.83986,-6.59504 -2.51953,-8.73047 -1.66668,-2.13539 -3.93231,-3.2031 -6.79687,-3.20313 m 0,-3.20312 c 4.08852,3e-5 7.35675,1.37372 9.80469,4.12109 2.44788,2.7344 3.67184,6.40627 3.67187,11.01563 -3e-5,4.59636 -1.22399,8.26823 -3.67187,11.01562 -2.44794,2.73438 -5.71617,4.10156 -9.80469,4.10156 -4.10158,0 -7.38282,-1.36718 -9.84375,-4.10156 -2.44792,-2.73437 -3.67188,-6.40624 -3.67188,-11.01562 0,-4.60936 1.22396,-8.28123 3.67188,-11.01563 2.46093,-2.74737 5.74217,-4.12106 9.84375,-4.12109"
         style=""
         id="path2987" />
      <path
         d="m 205.64844,397.36606 24.66797,0 0,3.32031 -10.35157,0 0,25.83985 -3.96484,0 0,-25.83985 -10.35156,0 0,-3.32031"
         style=""
         id="path2989" />
      <path
         d="m 234.14453,397.36606 3.94531,0 0,25.83984 14.19922,0 0,3.32032 -18.14453,0 0,-29.16016"
         style=""
         id="path2991" />
    </g>
  </g>
</svg>
